<?xml version="1.0" encoding="utf-8"?>
<!-- Generator: Adobe Illustrator 24.2.0, SVG Export Plug-In . SVG Version: 6.00 Build 0)  -->
<svg version="1.1" id="svg1936" xmlns:svg="http://www.w3.org/2000/svg"
	 xmlns="http://www.w3.org/2000/svg" xmlns:xlink="http://www.w3.org/1999/xlink" x="0px" y="0px" viewBox="0 0 1178.6 399.1"
	 style="enable-background:new 0 0 1178.6 399.1;" xml:space="preserve">
<style type="text/css">
	.st0{fill:#FF9900;}
	.st1{fill:#221F1F;}
</style>
<g>
	<path id="path8" class="st0" d="M821.4,285.6c-35,25.8-85.7,39.6-129.4,39.6c-61.2,0-116.4-22.7-158.1-60.3c-3.3-3-0.3-7,3.6-4.7
		c45,26.2,100.7,41.9,158.2,41.9c38.8,0,81.4-8,120.6-24.7C822.2,274.9,827.2,281.3,821.4,285.6"/>
	<path id="path10" class="st0" d="M835.9,269c-4.5-5.7-29.6-2.7-40.8-1.4c-3.4,0.4-4-2.6-0.9-4.7c20-14.1,52.8-10,56.7-5.3
		c3.8,4.7-1,37.6-19.8,53.4c-2.9,2.4-5.6,1.1-4.4-2.1C831,298.4,840.4,274.7,835.9,269"/>
	<path id="path12" class="st1" d="M795.9,163.5v-13.7c0-2.1,1.6-3.5,3.5-3.5h61.3c2,0,3.5,1.4,3.5,3.5v11.7c0,2-1.7,4.5-4.6,8.6
		l-31.7,45.3c11.8-0.3,24.3,1.5,34.9,7.5c2.4,1.4,3.1,3.4,3.3,5.3v14.6c0,2-2.2,4.3-4.5,3.1c-18.8-9.9-43.9-11-64.7,0.1
		c-2.1,1.2-4.4-1.2-4.4-3.1v-13.9c0-2.2,0-6,2.3-9.4l36.8-52.7h-32C797.5,167,795.9,165.6,795.9,163.5"/>
	<path id="path14" class="st1" d="M572.4,248.9h-18.6c-1.8-0.1-3.2-1.5-3.3-3.2v-95.7c0-1.9,1.6-3.4,3.6-3.4h17.4
		c1.8,0.1,3.3,1.5,3.4,3.2v12.5h0.3c4.5-12.1,13.1-17.7,24.5-17.7c11.7,0,19,5.6,24.2,17.7c4.5-12.1,14.8-17.7,25.7-17.7
		c7.8,0,16.4,3.2,21.6,10.5c5.9,8,4.7,19.7,4.7,30l0,60.4c0,1.9-1.6,3.5-3.6,3.5h-18.6c-1.9-0.1-3.4-1.6-3.4-3.5v-50.7
		c0-4,0.4-14.1-0.5-17.9c-1.4-6.4-5.6-8.2-11-8.2c-4.5,0-9.2,3-11.1,7.8c-1.9,4.8-1.7,12.9-1.7,18.3v50.7c0,1.9-1.6,3.5-3.6,3.5
		h-18.6c-1.9-0.1-3.4-1.6-3.4-3.5l0-50.7c0-10.7,1.8-26.4-11.5-26.4c-13.4,0-12.9,15.3-12.9,26.4v50.7
		C576,247.4,574.4,248.9,572.4,248.9"/>
	<path id="path16" class="st1" d="M916.9,144.6c27.7,0,42.6,23.8,42.6,54c0,29.2-16.5,52.3-42.6,52.3c-27.2,0-41.9-23.8-41.9-53.4
		C875,167.8,889.9,144.6,916.9,144.6 M917.1,164.2c-13.7,0-14.6,18.7-14.6,30.4c0,11.7-0.2,36.7,14.4,36.7
		c14.4,0,15.1-20.1,15.1-32.4c0-8.1-0.3-17.7-2.8-25.4C927.2,166.8,923,164.2,917.1,164.2"/>
	<path id="path18" class="st1" d="M995.4,248.9h-18.6c-1.9-0.1-3.4-1.6-3.4-3.5l0-95.7c0.2-1.8,1.7-3.1,3.6-3.1h17.3
		c1.6,0.1,3,1.2,3.3,2.7v14.6h0.3c5.2-13.1,12.5-19.3,25.4-19.3c8.4,0,16.5,3,21.8,11.3c4.9,7.7,4.9,20.5,4.9,29.8v60.2
		c-0.2,1.7-1.8,3-3.6,3h-18.7c-1.7-0.1-3.1-1.4-3.3-3v-52c0-10.5,1.2-25.8-11.7-25.8c-4.5,0-8.7,3-10.8,7.7c-2.6,5.8-3,11.7-3,18.1
		v51.5C999,247.4,997.4,248.9,995.4,248.9"/>
	<g id="use28" transform="translate(244.36719)">
		<path id="path30" class="st1" d="M747,203.2v-4c-13.5,0-27.7,2.9-27.7,18.8c0,8,4.2,13.5,11.3,13.5c5.2,0,9.9-3.2,12.9-8.5
			C747.2,216.5,747,210.5,747,203.2 M765.8,248.7c-1.2,1.1-3,1.2-4.4,0.4c-6.2-5.1-7.3-7.5-10.7-12.4
			c-10.2,10.4-17.5,13.6-30.7,13.6c-15.7,0-27.9-9.7-27.9-29c0-15.1,8.2-25.4,19.9-30.5c10.1-4.5,24.3-5.2,35.1-6.5v-2.4
			c0-4.4,0.3-9.7-2.3-13.5c-2.3-3.4-6.6-4.9-10.5-4.9c-7.1,0-13.4,3.6-15,11.2c-0.3,1.7-1.5,3.3-3.2,3.4l-18.1-1.9
			c-1.5-0.3-3.2-1.6-2.8-3.9c4.2-21.9,24-28.5,41.7-28.5c9.1,0,20.9,2.4,28.1,9.3c9.1,8.5,8.2,19.8,8.2,32.1v29
			c0,8.7,3.6,12.6,7,17.3c1.2,1.7,1.5,3.7-0.1,5C776.4,239.5,769.6,245.4,765.8,248.7L765.8,248.7"/>
	</g>
	<path class="st1" d="M230.8,178.9c0,12.6-1.6,23.5-4.7,32.5c-3.1,9-7.6,16.3-13.4,22c-5.8,5.7-12.9,9.9-21.2,12.5
		c-8.3,2.7-18.2,4-29.7,4h-31c-2.2,0-4.1-0.7-5.6-2.1c-1.5-1.4-2.3-3.6-2.3-6.8V120.9c0-3.1,0.8-5.4,2.3-6.8
		c1.5-1.4,3.4-2.1,5.6-2.1h33.3c11.6,0,21.4,1.4,29.4,4.3c8,2.9,14.8,7.1,20.3,12.8c5.5,5.6,9.7,12.6,12.6,20.9
		C229.4,158.4,230.8,168,230.8,178.9z M203.5,179.9c0-6.5-0.7-12.6-2.2-18.2c-1.4-5.6-3.7-10.5-6.9-14.6c-3.2-4.1-7.2-7.3-12.2-9.6
		c-5-2.3-11.5-3.5-19.6-3.5h-13.3v93.8h13.7c7.2,0,13.3-1,18.2-3c4.9-2,9.1-5,12.4-9c3.3-4,5.8-9,7.4-15
		C202.7,194.8,203.5,187.9,203.5,179.9z"/>
	<path class="st1" d="M308.3,160.1c0,2.6-0.1,4.7-0.2,6.3c-0.1,1.6-0.3,2.9-0.6,3.8c-0.3,0.9-0.6,1.6-1.1,1.9
		c-0.4,0.4-1,0.5-1.7,0.5c-0.5,0-1.1-0.1-1.8-0.4c-0.7-0.2-1.4-0.5-2.3-0.8c-0.8-0.3-1.8-0.5-2.8-0.8c-1-0.2-2.1-0.4-3.3-0.4
		c-1.4,0-2.8,0.3-4.2,0.9c-1.4,0.6-2.9,1.5-4.4,2.8c-1.5,1.3-3.1,3-4.7,5.1c-1.6,2.1-3.4,4.8-5.3,7.9v59.3c0,0.7-0.2,1.3-0.6,1.9
		s-1.1,1-2.1,1.3c-1,0.4-2.3,0.6-3.9,0.8c-1.6,0.2-3.6,0.3-6.1,0.3c-2.5,0-4.5-0.1-6.1-0.3c-1.6-0.2-2.9-0.4-3.9-0.8
		c-1-0.4-1.7-0.8-2.1-1.3c-0.4-0.5-0.6-1.2-0.6-1.9v-95.1c0-0.7,0.2-1.3,0.5-1.9c0.3-0.5,0.9-1,1.8-1.3c0.9-0.4,2-0.6,3.4-0.8
		c1.4-0.2,3.1-0.3,5.2-0.3c2.1,0,3.9,0.1,5.3,0.3c1.4,0.2,2.5,0.4,3.3,0.8c0.8,0.4,1.3,0.8,1.7,1.3c0.3,0.5,0.5,1.2,0.5,1.9v11.8
		c2.3-3.6,4.5-6.5,6.6-8.8c2.1-2.3,4-4.1,5.9-5.5c1.9-1.3,3.7-2.3,5.6-2.8c1.9-0.5,3.7-0.8,5.6-0.8c0.9,0,1.8,0.1,2.8,0.2
		s2,0.3,3.1,0.5c1.1,0.2,2,0.5,2.8,0.9c0.8,0.3,1.4,0.7,1.8,1c0.4,0.4,0.6,0.7,0.8,1.2c0.2,0.4,0.3,1,0.5,1.8
		c0.1,0.7,0.2,1.9,0.3,3.4C308.3,155.5,308.3,157.5,308.3,160.1z"/>
	<path class="st1" d="M404.1,196c0,3.3-0.7,5.7-2.1,7.2c-1.4,1.6-3.3,2.3-5.7,2.3H342c0,4,0.5,7.7,1.4,11c0.9,3.3,2.3,6.1,4.3,8.4
		c2,2.3,4.5,4.1,7.6,5.3c3.1,1.2,6.8,1.8,11.2,1.8c4.4,0,8.3-0.3,11.6-1c3.3-0.7,6.2-1.4,8.7-2.2c2.4-0.8,4.5-1.6,6.1-2.2
		c1.6-0.7,2.9-1,3.9-1c0.6,0,1.1,0.1,1.5,0.4c0.4,0.2,0.7,0.7,1,1.3c0.3,0.6,0.5,1.5,0.6,2.7s0.2,2.6,0.2,4.4c0,1.6,0,2.9-0.1,4
		c-0.1,1.1-0.2,2-0.3,2.8c-0.1,0.8-0.3,1.4-0.6,2c-0.3,0.5-0.6,1-1.1,1.5c-0.4,0.5-1.6,1.2-3.6,2c-1.9,0.9-4.4,1.7-7.4,2.5
		c-3,0.8-6.4,1.5-10.3,2.1c-3.9,0.6-8,0.9-12.4,0.9c-7.9,0-14.9-1.1-20.9-3.2c-6-2.1-11-5.4-15-9.7c-4-4.3-7-9.8-9-16.4
		c-2-6.6-3-14.4-3-23.2c0-8.5,1-16.1,3.1-22.9c2.1-6.8,5.1-12.5,9-17.3c3.9-4.7,8.7-8.3,14.4-10.8c5.6-2.5,12-3.7,19.1-3.7
		c7.5,0,13.9,1.2,19.2,3.5s9.7,5.6,13.1,9.8c3.4,4.2,5.9,9.1,7.5,14.8c1.6,5.7,2.4,11.9,2.4,18.5V196z M379.7,188.3
		c0.2-7.5-1.2-13.4-4.3-17.7c-3-4.3-7.7-6.4-14.1-6.4c-3.2,0-6,0.6-8.4,1.9c-2.4,1.3-4.3,3-5.9,5.2c-1.6,2.2-2.8,4.7-3.6,7.7
		c-0.8,2.9-1.3,6.1-1.5,9.4H379.7z"/>
	<path class="st1" d="M532.5,239.5c0.8,2.6,1.3,4.6,1.5,6.1c0.2,1.5-0.1,2.6-0.8,3.4c-0.7,0.7-2,1.2-3.9,1.4
		c-1.9,0.2-4.4,0.3-7.7,0.3c-3.4,0-6.1-0.1-8-0.2c-1.9-0.1-3.4-0.3-4.4-0.6c-1-0.3-1.7-0.8-2.1-1.3c-0.4-0.6-0.7-1.3-1-2.2
		l-8.7-27.7h-48.7l-8.2,27c-0.3,1-0.6,1.8-1.1,2.5c-0.4,0.7-1.1,1.2-2.1,1.6c-1,0.4-2.3,0.7-4.1,0.8c-1.8,0.1-4.1,0.2-7,0.2
		c-3.1,0-5.5-0.1-7.2-0.3c-1.7-0.2-2.9-0.7-3.6-1.5c-0.7-0.8-0.9-2-0.7-3.5c0.2-1.5,0.7-3.5,1.5-6l40-122.3c0.4-1.2,0.9-2.2,1.4-2.9
		c0.5-0.7,1.4-1.3,2.6-1.7c1.2-0.4,2.8-0.6,4.9-0.7c2.1-0.1,4.8-0.2,8.2-0.2c3.9,0,7.1,0.1,9.4,0.2c2.3,0.1,4.2,0.4,5.5,0.7
		c1.3,0.4,2.2,1,2.8,1.8c0.6,0.8,1.1,1.8,1.5,3.2L532.5,239.5z M473,138.3h-0.1L454.6,197h36.8L473,138.3z"/>
</g>
</svg>
